<?xml version="1.0" standalone="no"?>
<!DOCTYPE svg PUBLIC "-//W3C//DTD SVG 20010904//EN"
 "http://www.w3.org/TR/2001/REC-SVG-20010904/DTD/svg10.dtd">
<svg version="1.0" xmlns="http://www.w3.org/2000/svg"
 width="850.000000pt" height="850.000000pt" viewBox="0 0 850.000000 850.000000"
 preserveAspectRatio="xMidYMid meet">
<metadata>
Created by potrace 1.11, written by Peter Selinger 2001-2013
</metadata>
<g transform="translate(0.000000,850.000000) scale(0.100000,-0.100000)"
fill="#000000" stroke="none">
<path d="M4027 7794 c-1 -1 -42 -5 -92 -9 -49 -3 -106 -8 -125 -11 -161 -21
-249 -36 -365 -59 -137 -28 -447 -119 -540 -160 -16 -7 -46 -18 -65 -25 -111
-40 -363 -165 -515 -255 -136 -80 -365 -241 -456 -319 -19 -17 -62 -53 -94
-81 -76 -64 -250 -238 -336 -335 -303 -343 -547 -758 -706 -1200 -84 -233
-165 -577 -189 -800 -4 -36 -8 -76 -10 -90 -6 -47 -17 -274 -17 -365 0 -91 11
-320 17 -352 2 -10 7 -49 11 -86 3 -37 8 -76 10 -86 2 -10 6 -36 10 -57 73
-467 253 -947 508 -1359 219 -354 508 -681 832 -939 127 -102 231 -176 244
-176 6 0 11 -3 11 -7 0 -5 12 -15 28 -24 15 -9 65 -40 112 -69 89 -55 310
-173 346 -184 17 -5 24 2 44 46 13 29 45 98 71 153 25 55 56 123 69 150 12 28
45 97 71 154 27 57 49 104 49 106 0 1 27 61 61 131 33 71 68 145 77 164 165
365 247 481 447 632 128 97 332 185 470 204 22 3 56 9 75 13 42 9 222 7 300
-3 231 -29 472 -148 641 -316 143 -142 195 -234 469 -835 15 -33 43 -94 63
-135 19 -41 49 -105 66 -142 17 -38 45 -98 62 -135 17 -38 44 -96 60 -130 15
-35 31 -63 35 -63 15 0 240 119 354 188 371 223 713 522 976 852 304 383 502
763 664 1275 12 39 67 261 74 300 10 52 25 139 30 166 2 15 8 53 11 85 4 33 9
68 11 79 11 57 18 244 18 435 0 262 -9 368 -49 600 -32 182 -48 252 -91 400
-35 120 -105 320 -137 391 -8 19 -32 71 -52 117 -65 147 -218 424 -281 509
-13 17 -24 34 -24 38 0 3 -5 11 -10 18 -6 7 -40 53 -77 102 -209 285 -496 574
-753 760 -30 21 -57 42 -60 45 -8 10 -200 135 -275 179 -85 51 -316 168 -405
206 -36 15 -84 36 -107 46 -48 21 -315 111 -383 129 -44 12 -56 15 -101 25
-12 2 -36 9 -53 14 -48 15 -193 42 -296 56 -25 3 -56 8 -70 10 -25 5 -44 7
-195 21 -68 6 -463 13 -468 8z m318 -2519 c252 -23 518 -150 702 -333 267
-266 389 -609 350 -987 -7 -69 -9 -77 -32 -163 -39 -151 -118 -310 -214 -432
-44 -54 -145 -156 -190 -190 -18 -14 -45 -35 -60 -46 -76 -62 -314 -167 -421
-188 -19 -3 -46 -9 -60 -12 -14 -4 -95 -8 -180 -10 -209 -4 -344 23 -529 107
-143 65 -327 212 -422 336 -24 32 -46 60 -50 63 -14 13 -99 173 -122 230 -30
76 -63 193 -74 265 -10 63 -10 295 0 355 55 341 248 639 531 821 157 103 333
165 521 185 33 3 61 7 62 8 4 3 121 -2 188 -9z"/>
</g>
</svg>
